# Blender v2.80 (sub 75) OBJ File: 'Monk.blend'
# www.blender.org
mtllib Monk_.mtl
o mesh_
v -3.667040 37.059849 0.967439
v -3.884233 37.552067 -1.381704
v -4.283655 38.472435 -1.330190
v -4.026448 37.674229 0.356842
v 0.000000 33.458355 2.508600
v -2.880763 33.478233 2.339334
v -3.079697 30.599203 1.617359
v 0.000000 30.486124 2.432912
v -5.971200 35.241760 0.660300
v -8.275356 33.442642 0.581879
v -6.738764 32.301723 1.659770
v -4.752335 34.212971 2.038348
v -6.805995 36.454342 -1.385363
v -9.539630 34.774963 -1.299675
v 0.000000 35.580109 1.793728
v -2.860770 36.122055 1.611622
v -9.750739 34.349148 -1.296723
v -9.230503 32.859531 0.023410
v -8.830830 31.426594 -1.296723
v -6.595352 32.282356 -1.286099
v -10.934048 32.622066 0.322889
v -10.897527 34.211445 -1.015334
v -10.689077 31.121017 -1.062791
v -12.191885 34.104706 -0.738474
v -12.429149 32.349964 1.078474
v -12.136393 30.944567 -0.755061
v -16.902056 32.693153 -0.002621
v -16.739910 31.738255 1.135855
v -16.644466 30.706287 -0.010878
v -2.496041 27.877010 1.840649
v 0.000000 27.757814 2.891408
v -3.745629 30.095112 -0.746477
v -3.793968 28.171366 -0.315418
v -2.352612 26.019112 1.461402
v 0.000000 25.939495 2.686047
v -3.707471 26.144857 -0.607060
v 0.000000 20.847876 3.325236
v -2.769661 21.016226 2.242207
v -2.830239 16.009783 2.297730
v 0.000000 15.805493 3.476577
v -4.535896 21.232712 -0.888009
v -5.118004 16.085833 -1.116779
v 0.000000 10.793975 3.683528
v -2.897927 10.954898 2.426136
v -3.079697 6.115716 2.391248
v 0.000000 6.073376 3.846583
v -5.607613 11.281131 -1.246289
v -5.887703 6.402617 -1.317205
v -2.736012 38.027702 0.476254
v -3.050373 38.355099 -1.263947
v -3.220174 37.080460 0.390731
v -4.444863 36.583454 0.484110
v -4.921734 37.406658 -1.392490
v -2.531214 36.528908 1.175749
v 0.000000 36.384907 1.633767
v -2.160546 37.593979 1.300477
v -3.897984 36.847538 -3.414209
v -4.287285 37.464333 -3.111973
v 0.000000 33.476936 -4.639503
v 0.000000 29.477947 -4.174466
v -2.891430 29.783926 -3.528060
v -2.886374 33.499134 -4.378695
v -6.100798 35.307720 -3.354916
v -4.757950 34.630459 -4.034829
v -7.254282 31.715569 -3.590632
v -8.531132 33.537300 -2.980092
v -2.909136 35.816868 -3.965350
v 0.000000 35.754612 -4.280404
v -9.236118 32.859531 -2.608636
v -11.515218 32.622066 -2.204622
v -13.010319 32.349964 -2.239882
v -16.890667 31.725311 -1.075097
v -2.501656 27.837429 -2.775446
v 0.000000 27.757811 -3.620797
v -2.358227 26.019108 -2.549058
v 0.000000 25.939491 -3.667421
v 0.000000 20.847874 -4.245877
v 0.000000 15.761718 -4.470258
v -2.835854 15.835877 -3.669223
v -2.775276 21.016224 -3.516600
v 0.000000 10.866936 -4.741692
v 0.000000 6.539360 -5.280353
v -3.085312 6.356578 -3.989752
v -2.903542 11.058079 -3.660081
v -2.014097 37.582912 -3.855172
v -2.536825 36.628262 -3.713064
v -3.141847 37.160591 -2.901152
v -2.674702 37.979164 -3.089730
v -4.750698 36.487953 -3.124496
v 0.000000 37.351540 -4.310494
v -1.905971 41.551872 -2.103331
v -1.128098 41.554165 -2.743174
v -1.582645 39.694462 -2.976326
v -2.232834 39.743584 -2.429110
v -2.393285 41.696709 -1.012723
v -2.688582 39.821224 -1.296721
v 0.000000 41.664463 -3.212298
v 0.000000 39.484680 -3.337470
v -1.011872 42.927383 -2.281907
v -1.673705 42.728333 -1.960933
v -1.735368 43.113636 -1.063937
v 0.000000 43.061859 -2.625262
v -2.104856 41.778854 0.383422
v -2.522088 39.869564 0.000009
v -2.215086 39.758488 1.277959
v -1.747461 41.698711 1.723026
v -0.987524 42.370857 2.213775
v -1.141068 43.496708 0.916141
v -1.573320 43.082157 -0.083535
v 0.000000 43.760788 1.415707
v 0.000000 42.628036 2.535851
v -1.018744 43.812416 -0.912520
v 0.000000 44.098606 -1.164168
v -1.395971 38.841640 -0.104503
v -1.633160 39.911175 -0.127021
v -1.915106 38.175873 0.597987
v -1.552534 41.614002 0.318046
v -0.900984 42.241623 1.286755
v 0.000000 42.487453 1.608831
v 0.000000 36.897953 0.638612
v -1.459364 37.668068 0.305322
v 0.000000 38.081760 0.638612
v -0.886431 38.279926 0.420037
v 0.000000 38.296051 1.408539
v -0.893707 38.479511 1.138214
v 0.000000 39.811413 1.580200
v -0.399742 39.946484 1.478247
v -0.960411 41.530956 1.307671
v 0.000000 41.338322 1.603871
v -1.366564 41.175003 0.873618
v -1.458227 39.972504 1.002693
v -1.285788 39.013050 0.621840
v -20.699768 30.204744 0.972874
v -19.138500 30.865833 0.831890
v -19.382633 31.511929 1.512554
v -20.688232 30.887394 1.650932
v -20.138277 30.169586 -0.186640
v -18.984770 30.772730 -0.219849
v -18.946400 30.071125 2.433950
v -18.790897 30.078091 1.692478
v -17.926310 30.380659 0.980178
v -17.733128 30.939058 1.916292
v -19.303160 30.601471 1.962794
v -20.508148 30.213432 -0.549956
v -21.510721 30.464872 0.981133
v -19.431282 32.172775 0.848406
v -21.148623 31.240301 0.989391
v -20.266739 31.500711 0.178607
v -19.439835 32.210274 0.178607
v -19.105022 32.066319 -0.428182
v -19.990911 31.353739 -0.534143
v -19.195580 30.409927 2.419893
v -18.212467 31.930887 1.879921
v -2.226478 19.706436 1.514557
v -4.044178 19.884155 -0.553485
v -4.525630 13.773316 -0.553487
v -2.845926 13.520715 1.005464
v -3.191219 9.077209 0.464931
v -3.666172 2.955497 -0.054200
v -2.730471 2.771749 -1.109517
v -1.898932 9.146873 -0.860918
v -3.067863 11.290488 0.873359
v -4.674819 11.570090 -0.205055
v -4.772506 9.317040 -0.860918
v -1.724672 11.401376 -0.205055
v -1.254267 13.555121 -0.553487
v -4.711456 2.854625 -1.109517
v -0.389817 19.528717 -0.553486
v -2.099004 19.706436 -2.621528
v -3.008839 13.520715 -2.112438
v -3.556847 9.415651 -2.783457
v -3.801543 2.910317 -2.178621
v -2.741232 0.059804 -1.107033
v -3.750421 0.059804 -2.170475
v -3.750421 2.255082 -2.170475
v -4.691107 0.059804 -1.107033
v -2.543262 0.059804 1.989814
v -4.785466 0.059804 1.989814
v 3.667040 37.059849 0.967439
v 4.026448 37.674229 0.356842
v 4.283655 38.472435 -1.330190
v 3.884233 37.552067 -1.381704
v 3.079697 30.599203 1.617359
v 2.880763 33.478233 2.339334
v 5.971200 35.241760 0.660300
v 4.752335 34.212971 2.038348
v 6.738764 32.301723 1.659770
v 8.275356 33.442642 0.581879
v 9.539630 34.774963 -1.299675
v 6.805995 36.454342 -1.385363
v 2.860770 36.122055 1.611622
v 9.750739 34.349148 -1.296723
v 9.230503 32.859531 0.023410
v 6.595352 32.282356 -1.286099
v 8.830830 31.426594 -1.296723
v 10.934048 32.622066 0.322889
v 10.897527 34.211445 -1.015334
v 10.689077 31.121017 -1.062791
v 12.429149 32.349964 1.078474
v 12.191885 34.104706 -0.738474
v 12.136393 30.944567 -0.755061
v 16.739910 31.738255 1.135855
v 16.902056 32.693153 -0.002621
v 16.644466 30.706287 -0.010878
v 2.496041 27.877010 1.840649
v 3.745629 30.095112 -0.746477
v 3.793968 28.171366 -0.315418
v 2.352612 26.019112 1.461402
v 3.707471 26.144857 -0.607060
v 2.830239 16.009783 2.297730
v 2.769661 21.016226 2.242207
v 5.118004 16.085833 -1.116779
v 4.535896 21.232712 -0.888009
v 3.079697 6.115716 2.391248
v 2.897927 10.954898 2.426136
v 5.887703 6.402617 -1.317205
v 5.607613 11.281131 -1.246289
v 2.736012 38.027702 0.476254
v 3.220174 37.080460 0.390731
v 3.050373 38.355099 -1.263947
v 4.921734 37.406658 -1.392490
v 4.444863 36.583454 0.484110
v 2.531214 36.528908 1.175749
v 2.160546 37.593979 1.300477
v 3.897984 36.847538 -3.414209
v 4.287285 37.464333 -3.111973
v 2.886374 33.499134 -4.378695
v 2.891430 29.783926 -3.528060
v 6.100798 35.307720 -3.354916
v 8.531132 33.537300 -2.980092
v 7.254282 31.715569 -3.590632
v 4.757950 34.630459 -4.034829
v 2.909136 35.816868 -3.965350
v 9.236118 32.859531 -2.608636
v 11.515218 32.622066 -2.204622
v 13.010319 32.349964 -2.239882
v 16.890667 31.725311 -1.075097
v 2.501656 27.837429 -2.775446
v 2.358227 26.019108 -2.549058
v 2.775276 21.016224 -3.516600
v 2.835854 15.835877 -3.669223
v 2.903542 11.058079 -3.660081
v 3.085312 6.356578 -3.989752
v 2.014097 37.582912 -3.855172
v 2.674702 37.979164 -3.089730
v 3.141847 37.160591 -2.901152
v 2.536825 36.628262 -3.713064
v 4.750698 36.487953 -3.124496
v 1.905971 41.551872 -2.103331
v 2.232834 39.743584 -2.429110
v 1.582645 39.694462 -2.976326
v 1.128098 41.554165 -2.743174
v 2.393285 41.696709 -1.012723
v 2.688582 39.821224 -1.296721
v 1.011872 42.927383 -2.281907
v 1.673705 42.728333 -1.960933
v 1.735368 43.113636 -1.063937
v 2.104856 41.778854 0.383422
v 1.747461 41.698711 1.723026
v 2.215086 39.758488 1.277959
v 2.522088 39.869564 0.000009
v 1.141068 43.496708 0.916141
v 0.987524 42.370857 2.213775
v 1.573320 43.082157 -0.083535
v 1.018744 43.812416 -0.912520
v 1.395971 38.841640 -0.104503
v 1.915106 38.175873 0.597987
v 1.633160 39.911175 -0.127021
v 1.552534 41.614002 0.318046
v 0.900984 42.241623 1.286755
v 1.459364 37.668068 0.305322
v 0.886431 38.279926 0.420037
v 0.893707 38.479511 1.138214
v 0.399742 39.946484 1.478247
v 0.960411 41.530956 1.307671
v 1.366564 41.175003 0.873618
v 1.458227 39.972504 1.002693
v 1.285788 39.013050 0.621840
v 20.699768 30.204744 0.972874
v 20.688232 30.887394 1.650932
v 19.382633 31.511929 1.512554
v 19.138500 30.865833 0.831890
v 20.138277 30.169586 -0.186640
v 18.984770 30.772730 -0.219849
v 18.946400 30.071125 2.433950
v 17.733128 30.939058 1.916292
v 17.926310 30.380659 0.980178
v 18.790897 30.078091 1.692478
v 19.303160 30.601471 1.962794
v 20.508148 30.213432 -0.549956
v 21.510721 30.464872 0.981133
v 21.148623 31.240301 0.989391
v 19.431282 32.172775 0.848406
v 20.266739 31.500711 0.178607
v 19.990911 31.353739 -0.534143
v 19.105022 32.066319 -0.428182
v 19.439835 32.210274 0.178607
v 19.195580 30.409927 2.419893
v 18.212467 31.930887 1.879921
v 2.226478 19.706436 1.514557
v 2.845926 13.520715 1.005464
v 4.525630 13.773316 -0.553487
v 4.044178 19.884155 -0.553485
v 3.191219 9.077209 0.464931
v 1.898932 9.146873 -0.860918
v 2.730471 2.771749 -1.109517
v 3.666172 2.955497 -0.054200
v 3.067863 11.290488 0.873359
v 4.772506 9.317040 -0.860918
v 4.674819 11.570090 -0.205055
v 1.254267 13.555121 -0.553487
v 1.724672 11.401376 -0.205055
v 4.711456 2.854625 -1.109517
v 0.389817 19.528717 -0.553486
v 2.099004 19.706436 -2.621528
v 3.008839 13.520715 -2.112438
v 3.556847 9.415651 -2.783457
v 3.801543 2.910317 -2.178621
v 2.741232 0.059804 -1.107033
v 3.750421 2.255082 -2.170475
v 3.750421 0.059804 -2.170475
v 4.691107 0.059804 -1.107033
v 4.785466 0.059804 1.989814
v 2.543262 0.059804 1.989814
v 0.000000 40.053955 1.968608
v -18.959606 31.480261 -1.043229
v -19.704910 30.152136 -1.064609
v -19.457945 29.893293 2.109654
v -3.693216 2.616696 -0.043590
v -3.703304 0.984855 2.521535
v -3.702015 0.059803 3.239870
v 18.959606 31.480261 -1.043229
v 19.704910 30.152136 -1.064609
v 19.457945 29.893293 2.109654
v 3.693216 2.616696 -0.043590
v 3.703304 0.984855 2.521535
v 3.702015 0.059803 3.239870
v -32.293320 9.538511 0.000003
v -30.158297 9.538511 0.000003
v -30.158297 11.861803 0.000002
v -32.293320 11.861803 0.000002
v -30.158300 38.530899 0.000005
v -32.293324 38.530899 0.000005
v -30.158300 41.407372 0.000006
v -32.293324 41.407372 0.000006
v -30.562571 5.013533 0.000002
v -30.158295 5.013529 0.327909
v -30.158297 9.510000 0.327911
v -30.485350 9.538618 0.000003
v -30.993773 4.242918 0.000002
v -30.158295 4.279081 0.492451
v -28.023273 9.538511 0.000003
v -28.023273 11.861803 0.000002
v -28.023277 38.530899 0.000005
v -28.023277 41.407372 0.000006
v -29.754019 5.013533 0.000002
v -29.831240 9.538618 0.000003
v -29.322817 4.242918 0.000002
v -30.158295 9.510004 -0.327905
v -30.158293 5.013533 -0.327908
v -30.158293 4.279085 -0.492447
v -34.664154 10.558774 0.000002
v -36.057716 39.357193 0.000005
v -30.158295 3.727125 0.000002
v -30.158295 9.838461 0.000003
v -25.652437 10.558776 0.000002
v -24.258884 39.357193 0.000005
vt 0.905371 0.424874
vt 0.913650 0.371861
vt 0.893668 0.374532
vt 0.898245 0.407745
vt 0.984910 0.529135
vt 0.909409 0.518456
vt 0.882849 0.589627
vt 0.980644 0.598907
vt 0.820160 0.426392
vt 0.724824 0.454445
vt 0.805904 0.515286
vt 0.865462 0.487832
vt 0.811608 0.370564
vt 0.706403 0.369150
vt 0.986025 0.474356
vt 0.918928 0.452445
vt 0.132130 0.693134
vt 0.195823 0.693684
vt 0.190431 0.724379
vt 0.132656 0.701830
vt 0.253354 0.691630
vt 0.256981 0.746132
vt 0.191899 0.649855
vt 0.133331 0.666021
vt 0.250702 0.649330
vt 0.132844 0.635788
vt 0.190494 0.610831
vt 0.250350 0.612228
vt 0.130463 0.516815
vt 0.188168 0.511791
vt 0.247306 0.503629
vt 0.905596 0.662525
vt 0.975934 0.666264
vt 0.821106 0.618165
vt 0.839903 0.662034
vt 0.905527 0.711853
vt 0.975258 0.713046
vt 0.840188 0.714846
vt 0.672685 0.391131
vt 0.595230 0.387586
vt 0.605590 0.261245
vt 0.686752 0.261496
vt 0.501592 0.387833
vt 0.496728 0.257394
vt 0.697694 0.133618
vt 0.614591 0.133013
vt 0.617813 0.009975
vt 0.707864 0.013910
vt 0.666939 0.520341
vt 0.591004 0.514444
vt 0.494093 0.135886
vt 0.493517 0.012322
vt 0.506797 0.513700
vt 0.208292 0.823142
vt 0.154743 0.828172
vt 0.153159 0.799307
vt 0.206765 0.796329
vt 0.876177 0.422792
vt 0.866884 0.372765
vt 0.244069 0.795602
vt 0.310552 0.790605
vt 0.310096 0.813369
vt 0.241217 0.823999
vt 0.898400 0.324562
vt 0.890977 0.337693
vt 0.989608 0.233613
vt 0.989579 0.139328
vt 0.898818 0.142411
vt 0.910431 0.239323
vt 0.821194 0.319532
vt 0.862369 0.277276
vt 0.788627 0.222181
vt 0.717422 0.296441
vt 0.916175 0.294830
vt 0.987012 0.286941
vt 0.082471 0.726556
vt 0.071417 0.702670
vt 0.013079 0.754156
vt 0.015547 0.697217
vt 0.076022 0.646948
vt 0.017751 0.652529
vt 0.075726 0.611883
vt 0.017363 0.614664
vt 0.079187 0.514643
vt 0.021567 0.509962
vt 0.918332 0.078541
vt 0.988009 0.077769
vt 0.829385 0.114391
vt 0.845552 0.067125
vt 0.921402 0.024391
vt 0.988496 0.024937
vt 0.861265 0.015061
vt 0.340825 0.392868
vt 0.328804 0.260268
vt 0.406192 0.256279
vt 0.419148 0.386754
vt 0.316820 0.135248
vt 0.303054 0.016968
vt 0.390456 0.015153
vt 0.398473 0.134929
vt 0.427180 0.513973
vt 0.351199 0.519751
vt 0.046908 0.812579
vt 0.049063 0.783837
vt 0.107591 0.796259
vt 0.101257 0.823110
vt 0.870105 0.324996
vt 0.005911 0.816626
vt 0.002900 0.781373
vt 0.114403 0.917518
vt 0.086030 0.928913
vt 0.065478 0.875371
vt 0.105619 0.869877
vt 0.155702 0.915471
vt 0.152288 0.867616
vt 0.054586 0.941226
vt 0.026404 0.882801
vt 0.112941 0.960039
vt 0.126837 0.946733
vt 0.152980 0.952617
vt 0.093634 0.979151
vt 0.196842 0.920664
vt 0.194943 0.869963
vt 0.228767 0.870546
vt 0.236058 0.925308
vt 0.250318 0.953315
vt 0.206003 0.964996
vt 0.183007 0.953465
vt 0.219563 0.990590
vt 0.262496 0.979437
vt 0.154198 0.970142
vt 0.144135 0.994076
vt 0.743073 0.690627
vt 0.739911 0.735631
vt 0.808344 0.732283
vt 0.774217 0.665515
vt 0.733536 0.790305
vt 0.776147 0.820551
vt 0.699935 0.826108
vt 0.746713 0.862327
vt 0.651945 0.841633
vt 0.670969 0.897068
vt 0.704092 0.603609
vt 0.746040 0.634434
vt 0.795744 0.624425
vt 0.717645 0.568613
vt 0.693904 0.637203
vt 0.724725 0.661343
vt 0.652392 0.656258
vt 0.693258 0.673520
vt 0.652898 0.720984
vt 0.667686 0.730948
vt 0.691158 0.792345
vt 0.651609 0.793061
vt 0.710109 0.776607
vt 0.708543 0.734314
vt 0.720022 0.696000
vt 0.546938 0.856426
vt 0.543055 0.807969
vt 0.570226 0.813944
vt 0.571739 0.851441
vt 0.512111 0.844954
vt 0.510045 0.806457
vt 0.605530 0.784975
vt 0.586827 0.792637
vt 0.550922 0.773996
vt 0.583638 0.759053
vt 0.591620 0.813817
vt 0.504792 0.857776
vt 0.553740 0.878497
vt 0.392514 0.858749
vt 0.387761 0.812180
vt 0.409804 0.809284
vt 0.415508 0.859160
vt 0.436409 0.835134
vt 0.431883 0.805564
vt 0.453821 0.799125
vt 0.456326 0.828788
vt 0.353406 0.798829
vt 0.344146 0.790778
vt 0.359523 0.763453
vt 0.385911 0.780265
vt 0.361630 0.810420
vt 0.226320 0.468614
vt 0.160627 0.473316
vt 0.157925 0.315148
vt 0.223150 0.307976
vt 0.220200 0.192628
vt 0.216404 0.033518
vt 0.276675 0.024478
vt 0.284719 0.187610
vt 0.220851 0.250575
vt 0.159248 0.258201
vt 0.154378 0.199419
vt 0.282211 0.248348
vt 0.291838 0.303322
vt 0.152072 0.032057
vt 0.300822 0.456685
vt 0.088720 0.474310
vt 0.089220 0.311521
vt 0.089450 0.194270
vt 0.018762 0.196770
vt 0.020444 0.030611
vt 0.088657 0.033996
vt 0.016676 0.469152
vt 0.017950 0.313852
vt 0.419106 0.554449
vt 0.458544 0.560543
vt 0.448327 0.626097
vt 0.406316 0.635604
vt 0.280898 0.723803
vt 0.279045 0.684509
vt 0.362075 0.679547
vt 0.345966 0.720169
vt 0.788203 0.041136
vt 0.793097 0.114867
vt 0.733606 0.114634
vt 0.736468 0.040933
vt 0.905371 0.424874
vt 0.898245 0.407745
vt 0.893668 0.374532
vt 0.913650 0.371861
vt 0.882849 0.589627
vt 0.909409 0.518456
vt 0.820160 0.426392
vt 0.865462 0.487832
vt 0.805904 0.515286
vt 0.724824 0.454445
vt 0.706403 0.369150
vt 0.811608 0.370564
vt 0.918928 0.452445
vt 0.132130 0.693134
vt 0.132656 0.701830
vt 0.190431 0.724379
vt 0.195823 0.693684
vt 0.256981 0.746132
vt 0.253354 0.691630
vt 0.191899 0.649855
vt 0.133331 0.666021
vt 0.250702 0.649330
vt 0.190494 0.610831
vt 0.132844 0.635788
vt 0.250350 0.612228
vt 0.188168 0.511791
vt 0.130463 0.516815
vt 0.247306 0.503629
vt 0.905596 0.662525
vt 0.821106 0.618165
vt 0.839903 0.662034
vt 0.905527 0.711853
vt 0.840188 0.714846
vt 0.605590 0.261245
vt 0.595230 0.387586
vt 0.496728 0.257394
vt 0.501592 0.387833
vt 0.617813 0.009975
vt 0.614591 0.133013
vt 0.591004 0.514444
vt 0.493517 0.012322
vt 0.494093 0.135886
vt 0.506797 0.513700
vt 0.208292 0.823142
vt 0.206765 0.796329
vt 0.153159 0.799307
vt 0.154743 0.828172
vt 0.866884 0.372765
vt 0.876177 0.422792
vt 0.244069 0.795602
vt 0.241217 0.823999
vt 0.898400 0.324562
vt 0.890977 0.337693
vt 0.910431 0.239323
vt 0.898818 0.142411
vt 0.821194 0.319532
vt 0.717422 0.296441
vt 0.788627 0.222181
vt 0.862369 0.277276
vt 0.916175 0.294830
vt 0.071417 0.702670
vt 0.082471 0.726556
vt 0.015547 0.697217
vt 0.013079 0.754156
vt 0.076022 0.646948
vt 0.017751 0.652529
vt 0.075726 0.611883
vt 0.017363 0.614664
vt 0.079187 0.514643
vt 0.021567 0.509962
vt 0.918332 0.078541
vt 0.829385 0.114391
vt 0.845552 0.067125
vt 0.921402 0.024391
vt 0.861265 0.015061
vt 0.419148 0.386754
vt 0.406192 0.256279
vt 0.398473 0.134929
vt 0.390456 0.015153
vt 0.427180 0.513973
vt 0.046908 0.812579
vt 0.101257 0.823110
vt 0.107591 0.796259
vt 0.049063 0.783837
vt 0.870105 0.324996
vt 0.114403 0.917518
vt 0.105619 0.869877
vt 0.065478 0.875371
vt 0.086030 0.928913
vt 0.155702 0.915471
vt 0.152288 0.867616
vt 0.112941 0.960039
vt 0.126837 0.946733
vt 0.152980 0.952617
vt 0.196842 0.920664
vt 0.236058 0.925308
vt 0.228767 0.870546
vt 0.194943 0.869963
vt 0.206003 0.964996
vt 0.250318 0.953315
vt 0.183007 0.953465
vt 0.154198 0.970142
vt 0.743073 0.690627
vt 0.774217 0.665515
vt 0.808344 0.732283
vt 0.739911 0.735631
vt 0.776147 0.820551
vt 0.733536 0.790305
vt 0.746713 0.862327
vt 0.699935 0.826108
vt 0.795744 0.624425
vt 0.746040 0.634434
vt 0.724725 0.661343
vt 0.693258 0.673520
vt 0.667686 0.730948
vt 0.691158 0.792345
vt 0.710109 0.776607
vt 0.708543 0.734314
vt 0.720022 0.696000
vt 0.546938 0.856426
vt 0.571739 0.851441
vt 0.570226 0.813944
vt 0.543055 0.807969
vt 0.512111 0.844954
vt 0.510045 0.806457
vt 0.605530 0.784975
vt 0.583638 0.759053
vt 0.550922 0.773996
vt 0.586827 0.792637
vt 0.591620 0.813817
vt 0.504792 0.857776
vt 0.553740 0.878497
vt 0.392514 0.858749
vt 0.415508 0.859160
vt 0.409804 0.809284
vt 0.387761 0.812180
vt 0.436409 0.835134
vt 0.456326 0.828788
vt 0.453821 0.799125
vt 0.431883 0.805564
vt 0.353406 0.798829
vt 0.385911 0.780265
vt 0.359523 0.763453
vt 0.344146 0.790778
vt 0.361630 0.810420
vt 0.226320 0.468614
vt 0.223150 0.307976
vt 0.157925 0.315148
vt 0.160627 0.473316
vt 0.220200 0.192628
vt 0.284719 0.187610
vt 0.276675 0.024478
vt 0.216404 0.033518
vt 0.220851 0.250575
vt 0.154378 0.199419
vt 0.159248 0.258201
vt 0.291838 0.303322
vt 0.282211 0.248348
vt 0.152072 0.032057
vt 0.300822 0.456685
vt 0.088720 0.474310
vt 0.089220 0.311521
vt 0.089450 0.194270
vt 0.088657 0.033996
vt 0.020444 0.030611
vt 0.018762 0.196770
vt 0.017950 0.313852
vt 0.016676 0.469152
vt 0.419106 0.554449
vt 0.406316 0.635604
vt 0.448327 0.626097
vt 0.458544 0.560543
vt 0.280898 0.723803
vt 0.345966 0.720169
vt 0.362075 0.679547
vt 0.279045 0.684509
vt 0.788203 0.041136
vt 0.736468 0.040933
vt 0.733606 0.114634
vt 0.793097 0.114867
vt 0.930004 0.440635
vt 0.919450 0.416252
vt 0.749455 0.553832
vt 0.928640 0.312558
vt 0.919645 0.334544
vt 0.756340 0.185158
vt 0.642591 0.738252
vt 0.481546 0.800700
vt 0.510155 0.740584
vt 0.473717 0.740234
vt 0.487626 0.841650
vt 0.564257 0.731251
vt 0.607402 0.800837
vt 0.429241 0.740868
vt 0.418864 0.882216
vt 0.455771 0.864839
vt 0.391356 0.735134
vt 0.338447 0.808803
vt 0.016420 0.257268
vt 0.215885 0.024583
vt 0.088191 0.016939
vt 0.335340 0.540654
vt 0.366515 0.637844
vt 0.309103 0.575570
vt 0.287411 0.551686
vt 0.273974 0.598390
vt 0.762209 0.144501
vt 0.761550 0.015718
vt 0.930004 0.440635
vt 0.919450 0.416252
vt 0.749455 0.553832
vt 0.928640 0.312558
vt 0.919645 0.334544
vt 0.756340 0.185158
vt 0.481546 0.800700
vt 0.510155 0.740584
vt 0.473717 0.740234
vt 0.487626 0.841650
vt 0.564257 0.731251
vt 0.607402 0.800837
vt 0.429241 0.740868
vt 0.418864 0.882216
vt 0.455771 0.864839
vt 0.391356 0.735134
vt 0.338447 0.808803
vt 0.016420 0.257268
vt 0.215885 0.024583
vt 0.088191 0.016939
vt 0.335340 0.540654
vt 0.366515 0.637844
vt 0.309103 0.575570
vt 0.287411 0.551686
vt 0.273974 0.598390
vt 0.762209 0.144501
vt 0.761550 0.015718
vt 0.282323 0.916767
vt 0.282167 0.987901
vt 0.334186 0.987871
vt 0.334341 0.916767
vt 0.931315 0.987526
vt 0.931470 0.916770
vt 0.995720 0.987489
vt 0.995875 0.916770
vt 0.578141 0.693314
vt 0.578141 0.674735
vt 0.424393 0.674733
vt 0.423415 0.689763
vt 0.604490 0.713130
vt 0.603254 0.674735
vt 0.282323 0.916767
vt 0.334341 0.916767
vt 0.931470 0.916770
vt 0.995875 0.916770
vt 0.578142 0.656156
vt 0.423415 0.659704
vt 0.604491 0.636341
vt 0.424393 0.674733
vt 0.578141 0.674735
vt 0.603254 0.674735
vt 0.305167 0.839288
vt 0.949972 0.793748
vt 0.622128 0.674735
vt 0.413162 0.674733
vt 0.305167 0.839288
vt 0.949972 0.793748
vn -0.0820 0.6414 0.7628
vn 0.2907 0.9501 -0.1134
vn 0.0064 0.9999 -0.0123
vn -0.0765 0.8239 0.5615
vn 0.0000 0.0959 0.9954
vn -0.0708 0.0140 0.9974
vn -0.5010 -0.3288 0.8006
vn 0.0000 0.0359 0.9994
vn -0.4598 0.5705 0.6806
vn -0.5233 -0.0584 0.8501
vn -0.5653 -0.4605 0.6844
vn -0.2932 0.2825 0.9134
vn -0.5253 0.8509 0.0069
vn -0.7306 0.6827 0.0122
vn 0.0000 0.2901 0.9570
vn -0.0921 0.5224 0.8477
vn -0.6519 0.7575 -0.0348
vn -0.0551 -0.1871 0.9808
vn 0.2585 -0.9656 -0.0298
vn -0.3685 -0.9200 0.1333
vn 0.2936 0.0114 0.9558
vn -0.0965 0.9949 0.0304
vn 0.1235 -0.9915 -0.0402
vn -0.1237 0.9920 0.0240
vn 0.2071 -0.0170 0.9782
vn 0.1511 -0.9879 -0.0337
vn -0.1294 0.9909 -0.0368
vn 0.4251 0.0949 0.9001
vn 0.1759 -0.9810 -0.0820
vn -0.6329 -0.0788 0.7702
vn 0.0000 -0.0011 1.0000
vn -0.8599 -0.5052 0.0738
vn -0.9962 0.0017 0.0874
vn -0.6749 -0.0118 0.7379
vn 0.0000 0.0343 0.9994
vn -0.9993 0.0334 -0.0162
vn 0.0000 0.0701 0.9975
vn -0.6457 0.0908 0.7582
vn -0.6281 0.0305 0.7775
vn 0.0000 0.0324 0.9995
vn -0.9882 0.1486 -0.0362
vn -0.9942 0.0822 -0.0688
vn -0.0000 0.0296 0.9996
vn -0.6165 0.0262 0.7869
vn -0.6242 0.0249 0.7809
vn -0.0000 0.0345 0.9994
vn -0.9935 0.0578 -0.0985
vn -0.9947 0.0648 -0.0792
vn -0.8574 0.2460 0.4521
vn -0.8704 0.4911 -0.0349
vn -0.2947 0.7825 0.5485
vn -0.5966 0.4948 0.6318
vn -0.7510 0.6598 0.0250
vn -0.2212 0.4898 0.8433
vn 0.0000 0.4511 0.8925
vn -0.1224 0.3385 0.9330
vn -0.1369 0.5214 -0.8423
vn -0.1322 0.7268 -0.6740
vn 0.0000 -0.0121 -0.9999
vn 0.0000 -0.2370 -0.9715
vn -0.4785 -0.4527 -0.7524
vn -0.1028 -0.0269 -0.9943
vn -0.4110 0.4822 -0.7737
vn -0.2230 0.2147 -0.9509
vn -0.6153 -0.6061 -0.5039
vn -0.4960 0.0341 -0.8676
vn -0.1456 0.2775 -0.9496
vn 0.0000 0.1115 -0.9938
vn -0.1621 -0.2225 -0.9614
vn -0.1129 0.0145 -0.9935
vn -0.1535 -0.0222 -0.9879
vn -0.1497 -0.0090 -0.9887
vn -0.6525 -0.2130 -0.7272
vn -0.0000 -0.1802 -0.9836
vn -0.6368 0.0443 -0.7698
vn -0.0000 0.1119 -0.9937
vn 0.0000 0.0728 -0.9973
vn 0.0000 0.0324 -0.9995
vn -0.5148 0.0336 -0.8567
vn -0.5676 0.1125 -0.8156
vn 0.0000 0.0785 -0.9969
vn -0.0000 0.1235 -0.9923
vn -0.5405 0.0901 -0.8365
vn -0.5117 0.0468 -0.8579
vn -0.3987 0.2432 -0.8842
vn -0.2720 0.3308 -0.9037
vn -0.4756 0.6709 -0.5690
vn -0.7252 0.3772 -0.5760
vn -0.5121 0.4890 -0.7061
vn 0.0000 0.1820 -0.9833
vn -0.7566 0.2496 -0.6043
vn -0.4739 0.2434 -0.8463
vn -0.4063 0.3219 -0.8552
vn -0.7794 0.2948 -0.5529
vn -0.9548 0.2826 -0.0918
vn -0.9671 0.2067 -0.1484
vn 0.0000 0.2257 -0.9742
vn -0.0000 0.2926 -0.9562
vn -0.4319 0.5696 -0.6993
vn -0.6865 0.4515 -0.5700
vn -0.7822 0.6114 -0.1197
vn 0.0000 0.6124 -0.7905
vn -0.9262 0.3020 0.2259
vn -0.9659 0.1719 0.1935
vn -0.1375 0.0491 0.9893
vn -0.3445 -0.3203 0.8825
vn -0.3381 -0.3193 0.8853
vn -0.6121 0.7220 0.3225
vn -0.8340 0.5331 0.1422
vn 0.0001 0.8748 0.4845
vn 0.0000 -0.1622 0.9868
vn -0.4763 0.8660 -0.1525
vn 0.0005 0.9600 -0.2801
vn -0.1449 0.0107 0.9894
vn -0.0090 -0.2166 0.9762
vn 0.7431 0.1424 0.6538
vn 0.1573 -0.4003 0.9028
vn 0.0751 -0.6966 0.7135
vn 0.0000 -0.8053 0.5928
vn 0.0000 0.6614 0.7500
vn 0.3269 0.3465 0.8792
vn 0.0000 -0.5896 0.8077
vn -0.4329 -0.3538 0.8291
vn -0.0000 -0.6406 0.7679
vn -0.5696 -0.5545 0.6067
vn -0.0000 -0.5014 0.8652
vn -0.4795 -0.1089 0.8708
vn -0.5690 0.0806 0.8184
vn -0.0000 0.0381 0.9993
vn -0.8060 0.0503 0.5897
vn -0.7940 -0.0483 0.6060
vn -0.9077 -0.3258 0.2646
vn 0.0148 -0.9197 0.3923
vn -0.0044 -0.9018 0.4321
vn -0.4773 0.2455 0.8437
vn -0.1777 -0.0629 0.9821
vn 0.1756 -0.9795 0.0986
vn 0.3194 -0.9179 -0.2355
vn 0.2108 -0.5705 0.7938
vn -0.1292 -0.8594 -0.4948
vn 0.2087 -0.9776 0.0282
vn 0.6258 -0.2773 0.7291
vn -0.9675 -0.0852 -0.2379
vn -0.6524 -0.4939 -0.5748
vn -0.9302 -0.3300 0.1606
vn -0.3612 0.8814 0.3042
vn -0.7539 0.6500 0.0957
vn -0.6410 0.6666 -0.3806
vn -0.4490 0.8748 -0.1819
vn -0.3054 0.7831 -0.5417
vn -0.6175 0.4958 -0.6107
vn -0.4536 0.1835 0.8721
vn 0.0554 0.6374 0.7685
vn -0.0010 -0.0479 0.9989
vn -0.9968 0.0785 -0.0179
vn -0.9984 0.0555 -0.0130
vn 0.0234 -0.0327 0.9992
vn 0.0484 -0.1446 0.9883
vn 0.0212 -0.0329 0.9992
vn 0.9877 0.0685 -0.1407
vn 0.9965 -0.0822 -0.0172
vn 0.0292 -0.1551 0.9875
vn -0.9678 0.0363 0.2493
vn -0.9937 0.0154 0.1112
vn 0.9723 -0.1562 0.1737
vn 0.9776 -0.2056 -0.0444
vn -0.9902 0.1143 -0.0801
vn 0.9896 -0.1432 0.0159
vn 0.0342 -0.0520 -0.9981
vn -0.0361 -0.0536 -0.9979
vn -0.0743 0.0787 -0.9941
vn -0.0688 -0.0577 -0.9960
vn 0.7047 -0.6389 -0.3085
vn -0.0131 -0.5737 -0.8190
vn -0.0043 -0.0048 -1.0000
vn -0.7137 -0.6406 -0.2832
vn 0.8039 -0.4465 0.3930
vn -0.7956 -0.4654 0.3878
vn 0.0820 0.6414 0.7628
vn 0.0765 0.8239 0.5615
vn -0.0064 0.9999 -0.0123
vn -0.2907 0.9501 -0.1134
vn 0.5010 -0.3288 0.8006
vn 0.0708 0.0140 0.9974
vn 0.4598 0.5704 0.6806
vn 0.2932 0.2825 0.9134
vn 0.5653 -0.4605 0.6844
vn 0.5233 -0.0584 0.8501
vn 0.7306 0.6827 0.0122
vn 0.5253 0.8509 0.0069
vn 0.0921 0.5224 0.8477
vn 0.6519 0.7575 -0.0348
vn 0.0551 -0.1871 0.9808
vn 0.3685 -0.9200 0.1333
vn -0.2584 -0.9656 -0.0298
vn -0.2936 0.0114 0.9558
vn 0.0965 0.9949 0.0304
vn -0.1235 -0.9915 -0.0402
vn -0.2071 -0.0170 0.9782
vn 0.1237 0.9920 0.0240
vn -0.1511 -0.9879 -0.0337
vn -0.4251 0.0949 0.9001
vn 0.1294 0.9909 -0.0368
vn -0.1760 -0.9810 -0.0820
vn 0.6329 -0.0788 0.7702
vn 0.8599 -0.5051 0.0738
vn 0.9962 0.0017 0.0874
vn 0.6749 -0.0118 0.7379
vn 0.9993 0.0334 -0.0162
vn 0.6281 0.0305 0.7775
vn 0.6457 0.0908 0.7582
vn 0.9942 0.0822 -0.0688
vn 0.9882 0.1486 -0.0362
vn 0.6242 0.0248 0.7809
vn 0.6165 0.0262 0.7869
vn 0.9947 0.0648 -0.0792
vn 0.9935 0.0578 -0.0985
vn 0.8574 0.2460 0.4521
vn 0.2947 0.7825 0.5485
vn 0.8704 0.4911 -0.0349
vn 0.7510 0.6598 0.0250
vn 0.5966 0.4948 0.6318
vn 0.2212 0.4898 0.8433
vn 0.1224 0.3385 0.9330
vn 0.1369 0.5214 -0.8423
vn 0.1322 0.7268 -0.6740
vn 0.1028 -0.0269 -0.9943
vn 0.4785 -0.4527 -0.7524
vn 0.4110 0.4822 -0.7737
vn 0.4960 0.0341 -0.8676
vn 0.6153 -0.6061 -0.5039
vn 0.2229 0.2147 -0.9509
vn 0.1456 0.2775 -0.9496
vn 0.1620 -0.2225 -0.9614
vn 0.1129 0.0145 -0.9935
vn 0.1535 -0.0222 -0.9879
vn 0.1497 -0.0090 -0.9887
vn 0.6525 -0.2130 -0.7272
vn 0.6368 0.0443 -0.7698
vn 0.5676 0.1125 -0.8156
vn 0.5148 0.0336 -0.8567
vn 0.5117 0.0468 -0.8579
vn 0.5405 0.0901 -0.8365
vn 0.3987 0.2433 -0.8842
vn 0.7252 0.3772 -0.5760
vn 0.4756 0.6709 -0.5690
vn 0.2720 0.3308 -0.9037
vn 0.5121 0.4890 -0.7061
vn 0.7566 0.2495 -0.6044
vn 0.7794 0.2948 -0.5529
vn 0.4063 0.3219 -0.8552
vn 0.4739 0.2434 -0.8463
vn 0.9548 0.2826 -0.0919
vn 0.9671 0.2067 -0.1484
vn 0.4319 0.5698 -0.6992
vn 0.6864 0.4517 -0.5700
vn 0.7825 0.6111 -0.1195
vn 0.9262 0.3020 0.2259
vn 0.3437 -0.3200 0.8829
vn 0.1375 0.0491 0.9893
vn 0.9659 0.1719 0.1935
vn 0.6128 0.7226 0.3199
vn 0.3432 -0.3085 0.8872
vn 0.8340 0.5331 0.1422
vn 0.4763 0.8659 -0.1525
vn 0.1449 0.0107 0.9894
vn -0.7431 0.1424 0.6538
vn 0.0090 -0.2166 0.9762
vn -0.1438 -0.3903 0.9094
vn -0.0707 -0.6938 0.7167
vn -0.3269 0.3465 0.8792
vn 0.4329 -0.3538 0.8291
vn 0.5696 -0.5545 0.6067
vn 0.4795 -0.1089 0.8708
vn 0.5659 0.0806 0.8205
vn 0.8061 0.0501 0.5897
vn 0.7940 -0.0483 0.6060
vn 0.9077 -0.3258 0.2646
vn -0.0148 -0.9197 0.3923
vn 0.1777 -0.0629 0.9821
vn 0.4773 0.2455 0.8437
vn 0.0044 -0.9018 0.4321
vn -0.1756 -0.9795 0.0986
vn -0.3194 -0.9179 -0.2355
vn -0.2108 -0.5705 0.7938
vn -0.6258 -0.2773 0.7291
vn -0.2087 -0.9776 0.0282
vn 0.1292 -0.8594 -0.4948
vn 0.9675 -0.0852 -0.2379
vn 0.6524 -0.4939 -0.5748
vn 0.9302 -0.3300 0.1606
vn 0.7539 0.6500 0.0957
vn 0.3612 0.8814 0.3042
vn 0.6410 0.6666 -0.3805
vn 0.6175 0.4958 -0.6107
vn 0.3054 0.7831 -0.5417
vn 0.4490 0.8748 -0.1819
vn 0.4536 0.1835 0.8721
vn -0.0554 0.6374 0.7685
vn 0.0010 -0.0479 0.9989
vn -0.0234 -0.0327 0.9992
vn 0.9984 0.0555 -0.0130
vn 0.9968 0.0785 -0.0179
vn -0.0484 -0.1446 0.9883
vn -0.9965 -0.0822 -0.0172
vn -0.9877 0.0685 -0.1407
vn -0.0212 -0.0329 0.9992
vn -0.0292 -0.1551 0.9875
vn 0.9937 0.0154 0.1112
vn 0.9678 0.0363 0.2493
vn -0.9776 -0.2056 -0.0444
vn -0.9723 -0.1562 0.1737
vn 0.9902 0.1143 -0.0801
vn -0.9896 -0.1432 0.0159
vn -0.0342 -0.0520 -0.9981
vn 0.0361 -0.0536 -0.9979
vn 0.0743 0.0787 -0.9941
vn 0.0688 -0.0577 -0.9960
vn -0.7047 -0.6389 -0.3085
vn 0.0043 -0.0048 -1.0000
vn 0.0131 -0.5737 -0.8190
vn 0.7137 -0.6406 -0.2832
vn 0.7956 -0.4654 0.3878
vn -0.8039 -0.4465 0.3930
vn 0.0000 -0.2438 0.9698
vn -0.0525 0.1120 -0.9923
vn 0.0913 -0.6628 -0.7432
vn -0.7322 -0.6807 -0.0238
vn 0.0320 0.6557 0.7543
vn -0.0113 0.7126 0.7014
vn -0.0122 -0.3288 0.9443
vn 0.0525 0.1120 -0.9923
vn -0.0913 -0.6628 -0.7432
vn 0.7322 -0.6807 -0.0238
vn -0.0320 0.6557 0.7543
vn 0.0113 0.7126 0.7014
vn 0.0122 -0.3288 0.9443
vn -0.0000 0.0000 1.0000
vn -0.3882 -0.0210 0.9213
vn -0.2716 0.0064 0.9624
vn -0.0000 0.0106 0.9999
vn -0.4436 0.1453 0.8844
vn -0.9731 -0.2303 0.0001
vn 0.0000 -0.1348 0.9909
vn -0.2972 -0.1522 0.9426
vn -0.4390 -0.3391 0.8320
vn 0.3882 -0.0210 0.9213
vn 0.4436 0.1453 0.8844
vn 0.9731 -0.2305 0.0000
vn 0.4390 -0.3391 0.8320
vn 0.0000 0.0107 -0.9999
vn -0.2716 0.0091 -0.9624
vn -0.2972 -0.1522 -0.9426
vn -0.0012 -0.1348 -0.9909
vn -0.0000 -1.0000 -0.0000
vn 0.0000 0.4606 0.8876
vn 0.0000 1.0000 0.0000
vn -0.5325 -0.0874 0.8419
vn 0.5325 -0.0875 0.8419
vn 0.0000 0.4606 -0.8876
usemtl 01_-_Default
s 1
f 1/1/1 2/2/2 3/3/3 4/4/4
f 5/5/5 6/6/6 7/7/7 8/8/8
f 9/9/9 10/10/10 11/11/11 12/12/12
f 10/10/10 9/9/9 13/13/13 14/14/14
f 6/6/6 5/5/5 15/15/15 16/16/16
f 17/17/17 18/18/18 10/19/10 14/20/14
f 18/18/18 19/21/19 20/22/20 10/19/10
f 21/23/21 18/18/18 17/17/17 22/24/22
f 23/25/23 19/21/19 18/18/18 21/23/21
f 21/23/21 22/24/22 24/26/24 25/27/25
f 26/28/26 23/25/23 21/23/21 25/27/25
f 25/27/25 24/26/24 27/29/27 28/30/28
f 29/31/29 26/28/26 25/27/25 28/30/28
f 30/32/30 31/33/31 8/8/8 7/7/7
f 32/34/32 33/35/33 30/32/30 7/7/7
f 34/36/34 35/37/35 31/33/31 30/32/30
f 36/38/36 34/36/34 30/32/30 33/35/33
f 37/39/37 38/40/38 39/41/39 40/42/40
f 38/40/38 41/43/41 42/44/42 39/41/39
f 43/45/43 44/46/44 45/47/45 46/48/46
f 40/42/40 39/41/39 44/46/44 43/45/43
f 38/40/38 37/39/37 35/49/35 34/50/34
f 44/46/44 47/51/47 48/52/48 45/47/45
f 39/41/39 42/44/42 47/51/47 44/46/44
f 41/43/41 38/40/38 34/50/34 36/53/36
f 49/54/49 50/55/50 2/56/2 51/57/51
f 9/9/9 52/58/52 53/59/53 13/13/13
f 4/4/4 3/3/3 53/59/53 52/58/52
f 54/60/54 15/61/15 55/62/55 56/63/56
f 11/11/11 7/7/7 6/6/6 12/12/12
f 57/64/57 58/65/58 3/3/3 2/2/2
f 59/66/59 60/67/60 61/68/61 62/69/62
f 63/70/63 64/71/64 65/72/65 66/73/66
f 66/73/66 14/14/14 13/13/13 63/70/63
f 62/69/62 67/74/67 68/75/68 59/66/59
f 17/17/17 14/20/14 66/76/66 69/77/69
f 69/77/69 66/76/66 20/78/20 19/79/19
f 70/80/70 22/24/22 17/17/17 69/77/69
f 23/81/23 70/80/70 69/77/69 19/79/19
f 70/80/70 71/82/71 24/26/24 22/24/22
f 26/83/26 71/82/71 70/80/70 23/81/23
f 71/82/71 72/84/72 27/29/27 24/26/24
f 29/85/29 72/84/72 71/82/71 26/83/26
f 73/86/73 61/68/61 60/67/60 74/87/74
f 32/88/32 61/68/61 73/86/73 33/89/33
f 75/90/75 73/86/73 74/87/74 76/91/76
f 36/92/36 33/89/33 73/86/73 75/90/75
f 77/93/77 78/94/78 79/95/79 80/96/80
f 80/96/80 79/95/79 42/44/42 41/43/41
f 81/97/81 82/98/82 83/99/83 84/100/84
f 78/94/78 81/97/81 84/100/84 79/95/79
f 80/96/80 75/101/75 76/102/76 77/93/77
f 84/100/84 83/99/83 48/52/48 47/51/47
f 79/95/79 84/100/84 47/51/47 42/44/42
f 41/43/41 36/53/36 75/101/75 80/96/80
f 85/103/85 86/104/86 87/105/87 88/106/88
f 63/70/63 13/13/13 53/59/53 89/107/89
f 58/65/58 89/107/89 53/59/53 3/3/3
f 86/104/86 85/103/85 90/108/90 68/109/68
f 65/72/65 64/71/64 62/69/62 61/68/61
f 91/110/91 92/111/92 93/112/93 94/113/94
f 95/114/95 91/110/91 94/113/94 96/115/96
f 92/111/92 97/116/97 98/117/98 93/112/93
f 99/118/99 92/111/92 91/110/91 100/119/100
f 93/112/93 85/103/85 88/106/88 94/113/94
f 100/119/100 91/110/91 95/114/95 101/120/101
f 94/113/94 88/106/88 50/55/50 96/115/96
f 102/121/102 97/116/97 92/111/92 99/118/99
f 98/117/98 90/108/90 85/103/85 93/112/93
f 103/122/103 104/123/104 105/124/105 106/125/106
f 95/114/95 96/115/96 104/123/104 103/122/103
f 106/125/106 107/126/107 108/127/108 103/122/103
f 105/124/105 104/123/104 49/54/49 56/63/56
f 95/114/95 103/122/103 109/128/109 101/120/101
f 104/123/104 96/115/96 50/55/50 49/54/49
f 110/129/110 108/127/108 107/126/107 111/130/111
f 112/131/112 108/127/108 110/129/110 113/132/113
f 99/118/99 100/119/100 101/120/101 112/131/112
f 102/121/102 99/118/99 112/131/112 113/132/113
f 51/57/51 54/60/54 56/63/56 49/54/49
f 88/106/88 87/105/87 2/56/2 50/55/50
f 114/133/114 115/134/115 105/135/105 116/136/116
f 115/134/115 117/137/117 106/138/106 105/135/105
f 117/137/117 118/139/118 107/140/107 106/138/106
f 118/139/118 119/141/119 111/142/111 107/140/107
f 120/143/120 121/144/121 56/145/56 55/146/55
f 122/147/122 123/148/123 121/144/121 120/143/120
f 124/149/124 125/150/125 123/148/123 122/147/122
f 125/150/125 124/149/124 126/151/126 127/152/127
f 118/139/118 128/153/128 129/154/129 119/141/119
f 130/155/130 131/156/131 127/152/127 128/153/128
f 131/156/131 115/134/115 114/133/114 132/157/132
f 117/137/117 130/155/130 128/153/128 118/139/118
f 117/137/117 115/134/115 131/156/131 130/155/130
f 125/150/125 132/157/132 114/133/114 123/148/123
f 133/158/133 134/159/134 135/160/135 136/161/136
f 137/162/137 138/163/138 134/159/134 133/158/133
f 139/164/139 140/165/140 141/166/141 142/167/142
f 140/165/140 143/168/143 135/160/135 141/166/141
f 144/169/144 137/162/137 133/158/133 145/170/145
f 136/171/136 135/172/135 146/173/146 147/174/147
f 148/175/148 149/176/149 150/177/150 151/178/151
f 152/179/152 139/180/139 142/181/142 153/182/153
f 152/179/152 153/182/153 135/172/135 143/183/143
f 154/184/154 155/185/155 156/186/156 157/187/157
f 158/188/158 159/189/159 160/190/160 161/191/161
f 162/192/162 163/193/163 164/194/164 158/188/158
f 157/187/157 162/192/162 165/195/165 166/196/166
f 162/192/162 158/188/158 161/191/161 165/195/165
f 158/188/158 164/194/164 167/197/167 159/189/159
f 157/187/157 156/186/156 163/193/163 162/192/162
f 154/184/154 157/187/157 166/196/166 168/198/168
f 169/199/169 170/200/170 156/186/156 155/185/155
f 171/201/171 161/202/161 160/203/160 172/204/172
f 171/201/171 172/204/172 167/197/167 164/194/164
f 169/199/169 168/205/168 166/206/166 170/200/170
f 173/207/173 174/208/174 175/209/175 160/210/160
f 174/211/174 176/212/176 167/213/167 175/214/175
f 173/215/173 177/216/177 178/217/178 176/218/176
f 179/219/179 180/220/180 181/221/181 182/222/182
f 5/5/5 8/8/8 183/223/183 184/224/184
f 185/225/185 186/226/186 187/227/187 188/228/188
f 188/228/188 189/229/189 190/230/190 185/225/185
f 184/224/184 191/231/191 15/15/15 5/5/5
f 192/232/192 189/233/189 188/234/188 193/235/193
f 193/235/193 188/234/188 194/236/194 195/237/195
f 196/238/196 197/239/197 192/232/192 193/235/193
f 198/240/198 196/238/196 193/235/193 195/237/195
f 196/238/196 199/241/199 200/242/200 197/239/197
f 201/243/201 199/241/199 196/238/196 198/240/198
f 199/241/199 202/244/202 203/245/203 200/242/200
f 204/246/204 202/244/202 199/241/199 201/243/201
f 205/247/205 183/223/183 8/8/8 31/33/31
f 206/248/206 183/223/183 205/247/205 207/249/207
f 208/250/208 205/247/205 31/33/31 35/37/35
f 209/251/209 207/249/207 205/247/205 208/250/208
f 37/39/37 40/42/40 210/252/210 211/253/211
f 211/253/211 210/252/210 212/254/212 213/255/213
f 43/45/43 46/48/46 214/256/214 215/257/215
f 40/42/40 43/45/43 215/257/215 210/252/210
f 211/253/211 208/258/208 35/49/35 37/39/37
f 215/257/215 214/256/214 216/259/216 217/260/217
f 210/252/210 215/257/215 217/260/217 212/254/212
f 213/255/213 209/261/209 208/258/208 211/253/211
f 218/262/218 219/263/219 182/264/182 220/265/220
f 185/225/185 190/230/190 221/266/221 222/267/222
f 180/220/180 222/267/222 221/266/221 181/221/181
f 223/268/223 224/269/224 55/62/55 15/61/15
f 187/227/187 186/226/186 184/224/184 183/223/183
f 225/270/225 182/222/182 181/221/181 226/271/226
f 59/66/59 227/272/227 228/273/228 60/67/60
f 229/274/229 230/275/230 231/276/231 232/277/232
f 230/275/230 229/274/229 190/230/190 189/229/189
f 227/272/227 59/66/59 68/75/68 233/278/233
f 192/232/192 234/279/234 230/280/230 189/233/189
f 234/279/234 195/281/195 194/282/194 230/280/230
f 235/283/235 234/279/234 192/232/192 197/239/197
f 198/284/198 195/281/195 234/279/234 235/283/235
f 235/283/235 197/239/197 200/242/200 236/285/236
f 201/286/201 198/284/198 235/283/235 236/285/236
f 236/285/236 200/242/200 203/245/203 237/287/237
f 204/288/204 201/286/201 236/285/236 237/287/237
f 238/289/238 74/87/74 60/67/60 228/273/228
f 206/290/206 207/291/207 238/289/238 228/273/228
f 239/292/239 76/91/76 74/87/74 238/289/238
f 209/293/209 239/292/239 238/289/238 207/291/207
f 77/93/77 240/294/240 241/295/241 78/94/78
f 240/294/240 213/255/213 212/254/212 241/295/241
f 81/97/81 242/296/242 243/297/243 82/98/82
f 78/94/78 241/295/241 242/296/242 81/97/81
f 240/294/240 77/93/77 76/102/76 239/298/239
f 242/296/242 217/260/217 216/259/216 243/297/243
f 241/295/241 212/254/212 217/260/217 242/296/242
f 213/255/213 240/294/240 239/298/239 209/261/209
f 244/299/244 245/300/245 246/301/246 247/302/247
f 229/274/229 248/303/248 221/266/221 190/230/190
f 226/271/226 181/221/181 221/266/221 248/303/248
f 247/302/247 68/109/68 90/108/90 244/299/244
f 231/276/231 228/273/228 227/272/227 232/277/232
f 249/304/249 250/305/250 251/306/251 252/307/252
f 253/308/253 254/309/254 250/305/250 249/304/249
f 252/307/252 251/306/251 98/117/98 97/116/97
f 255/310/255 256/311/256 249/304/249 252/307/252
f 251/306/251 250/305/250 245/300/245 244/299/244
f 256/311/256 257/312/257 253/308/253 249/304/249
f 250/305/250 254/309/254 220/265/220 245/300/245
f 102/121/102 255/310/255 252/307/252 97/116/97
f 98/117/98 251/306/251 244/299/244 90/108/90
f 258/313/258 259/314/259 260/315/260 261/316/261
f 253/308/253 258/313/258 261/316/261 254/309/254
f 259/314/259 258/313/258 262/317/262 263/318/263
f 260/315/260 224/269/224 218/262/218 261/316/261
f 253/308/253 257/312/257 264/319/264 258/313/258
f 261/316/261 218/262/218 220/265/220 254/309/254
f 110/129/110 111/130/111 263/318/263 262/317/262
f 265/320/265 113/132/113 110/129/110 262/317/262
f 255/310/255 265/320/265 257/312/257 256/311/256
f 102/121/102 113/132/113 265/320/265 255/310/255
f 219/263/219 218/262/218 224/269/224 223/268/223
f 245/300/245 220/265/220 182/264/182 246/301/246
f 266/321/266 267/322/267 260/323/260 268/324/268
f 268/324/268 260/323/260 259/325/259 269/326/269
f 269/326/269 259/325/259 263/327/263 270/328/270
f 270/328/270 263/327/263 111/142/111 119/141/119
f 120/143/120 55/146/55 224/329/224 271/330/271
f 122/147/122 120/143/120 271/330/271 272/331/272
f 124/149/124 122/147/122 272/331/272 273/332/273
f 273/332/273 274/333/274 126/151/126 124/149/124
f 270/328/270 119/141/119 129/154/129 275/334/275
f 276/335/276 275/334/275 274/333/274 277/336/277
f 277/336/277 278/337/278 266/321/266 268/324/268
f 269/326/269 270/328/270 275/334/275 276/335/276
f 269/326/269 276/335/276 277/336/277 268/324/268
f 273/332/273 272/331/272 266/321/266 278/337/278
f 279/338/279 280/339/280 281/340/281 282/341/282
f 283/342/283 279/338/279 282/341/282 284/343/284
f 285/344/285 286/345/286 287/346/287 288/347/288
f 288/347/288 287/346/287 281/340/281 289/348/289
f 290/349/290 291/350/291 279/338/279 283/342/283
f 280/351/280 292/352/292 293/353/293 281/354/281
f 294/355/294 295/356/295 296/357/296 297/358/297
f 298/359/298 299/360/299 286/361/286 285/362/285
f 298/359/298 289/363/289 281/354/281 299/360/299
f 300/364/300 301/365/301 302/366/302 303/367/303
f 304/368/304 305/369/305 306/370/306 307/371/307
f 308/372/308 304/368/304 309/373/309 310/374/310
f 301/365/301 311/375/311 312/376/312 308/372/308
f 308/372/308 312/376/312 305/369/305 304/368/304
f 304/368/304 307/371/307 313/377/313 309/373/309
f 301/365/301 308/372/308 310/374/310 302/366/302
f 300/364/300 314/378/314 311/375/311 301/365/301
f 315/379/315 303/367/303 302/366/302 316/380/316
f 317/381/317 318/382/318 306/383/306 305/384/305
f 317/381/317 309/373/309 313/377/313 318/382/318
f 315/379/315 316/380/316 311/385/311 314/386/314
f 319/387/319 306/388/306 320/389/320 321/390/321
f 321/391/321 320/392/320 313/393/313 322/394/322
f 319/395/319 322/396/322 323/397/323 324/398/324
f 6/6/6 16/16/16 12/12/12
f 12/12/12 52/58/52 9/9/9
f 16/16/16 15/15/15 54/399/54
f 1/1/1 16/16/16 51/400/51
f 12/12/12 16/16/16 52/58/52
f 1/1/1 4/4/4 52/58/52
f 7/7/7 11/11/11 20/401/20
f 10/10/10 20/401/20 11/11/11
f 62/69/62 64/71/64 67/74/67
f 64/71/64 63/70/63 89/107/89
f 67/74/67 86/402/86 68/75/68
f 2/2/2 87/403/87 57/64/57
f 64/71/64 89/107/89 67/74/67
f 57/64/57 89/107/89 58/65/58
f 61/68/61 20/404/20 65/72/65
f 66/73/66 65/72/65 20/404/20
f 7/7/7 20/401/20 32/34/32
f 20/404/20 61/68/61 32/88/32
f 108/127/108 109/128/109 103/122/103
f 109/128/109 112/131/112 101/120/101
f 108/127/108 112/131/112 109/128/109
f 16/16/16 1/1/1 52/58/52
f 89/107/89 57/64/57 67/74/67
f 2/2/2 1/1/1 51/400/51
f 86/402/86 57/64/57 87/403/87
f 86/402/86 67/74/67 57/64/57
f 16/16/16 54/399/54 51/400/51
f 121/144/121 116/136/116 56/145/56
f 105/135/105 56/145/56 116/136/116
f 121/144/121 123/148/123 116/136/116
f 123/148/123 114/133/114 116/136/116
f 325/405/325 129/154/129 127/152/127
f 129/154/129 128/153/128 127/152/127
f 126/151/126 325/405/325 127/152/127
f 125/150/125 131/156/131 132/157/132
f 125/150/125 127/152/127 131/156/131
f 326/406/326 29/407/29 138/163/138
f 326/406/326 72/408/72 29/407/29
f 138/163/138 137/162/137 327/409/327
f 136/161/136 145/170/145 133/158/133
f 137/162/137 144/169/144 327/409/327
f 138/163/138 327/409/327 326/406/326
f 28/410/28 142/167/142 141/166/141
f 134/159/134 138/163/138 141/166/141
f 28/410/28 141/166/141 29/407/29
f 134/159/134 141/166/141 135/160/135
f 141/166/141 138/163/138 29/407/29
f 140/165/140 139/164/139 328/411/328
f 143/168/143 140/165/140 328/411/328
f 149/176/149 146/173/146 27/412/27
f 27/412/27 72/408/72 150/177/150
f 136/171/136 147/174/147 145/413/145
f 27/412/27 150/177/150 149/176/149
f 150/177/150 72/408/72 326/406/326
f 326/406/326 327/409/327 151/178/151
f 149/176/149 148/175/148 146/173/146
f 147/174/147 148/175/148 144/414/144
f 327/409/327 144/414/144 151/178/151
f 27/412/27 153/182/153 28/415/28
f 146/173/146 135/172/135 153/182/153
f 28/415/28 153/182/153 142/181/142
f 146/173/146 153/182/153 27/412/27
f 146/173/146 148/175/148 147/174/147
f 326/406/326 151/178/151 150/177/150
f 144/414/144 148/175/148 151/178/151
f 147/174/147 144/414/144 145/413/145
f 139/180/139 152/179/152 328/416/328
f 152/179/152 143/183/143 328/416/328
f 163/193/163 171/201/171 164/194/164
f 165/417/165 171/201/171 170/200/170
f 161/202/161 171/201/171 165/417/165
f 156/186/156 170/200/170 163/193/163
f 165/417/165 170/200/170 166/206/166
f 163/193/163 170/200/170 171/201/171
f 329/418/329 160/190/160 159/189/159
f 167/197/167 329/418/329 159/189/159
f 175/419/175 172/204/172 160/203/160
f 172/204/172 175/419/175 167/197/167
f 160/210/160 177/420/177 173/207/173
f 329/421/329 167/213/167 330/422/330
f 330/422/330 331/423/331 177/420/177
f 178/424/178 331/423/331 330/422/330
f 160/210/160 330/422/330 177/420/177
f 167/213/167 176/212/176 178/424/178
f 167/213/167 178/424/178 330/422/330
f 160/210/160 329/421/329 330/422/330
f 331/425/331 178/217/178 177/216/177
f 176/218/176 174/426/174 173/215/173
f 184/224/184 186/226/186 191/231/191
f 186/226/186 185/225/185 222/267/222
f 191/231/191 223/427/223 15/15/15
f 179/219/179 219/428/219 191/231/191
f 186/226/186 222/267/222 191/231/191
f 179/219/179 222/267/222 180/220/180
f 183/223/183 194/429/194 187/227/187
f 188/228/188 187/227/187 194/429/194
f 227/272/227 233/278/233 232/277/232
f 232/277/232 248/303/248 229/274/229
f 233/278/233 68/75/68 247/430/247
f 182/222/182 225/270/225 246/431/246
f 232/277/232 233/278/233 248/303/248
f 225/270/225 226/271/226 248/303/248
f 228/273/228 231/276/231 194/432/194
f 230/275/230 194/432/194 231/276/231
f 183/223/183 206/248/206 194/429/194
f 194/432/194 206/290/206 228/273/228
f 262/317/262 258/313/258 264/319/264
f 264/319/264 257/312/257 265/320/265
f 262/317/262 264/319/264 265/320/265
f 191/231/191 222/267/222 179/219/179
f 248/303/248 233/278/233 225/270/225
f 182/222/182 219/428/219 179/219/179
f 247/430/247 246/431/246 225/270/225
f 247/430/247 225/270/225 233/278/233
f 191/231/191 219/428/219 223/427/223
f 271/330/271 224/329/224 267/322/267
f 260/323/260 267/322/267 224/329/224
f 271/330/271 267/322/267 272/331/272
f 272/331/272 267/322/267 266/321/266
f 325/405/325 274/333/274 129/154/129
f 129/154/129 274/333/274 275/334/275
f 126/151/126 274/333/274 325/405/325
f 273/332/273 278/337/278 277/336/277
f 273/332/273 277/336/277 274/333/274
f 332/433/332 284/343/284 204/434/204
f 332/433/332 204/434/204 237/435/237
f 284/343/284 333/436/333 283/342/283
f 280/339/280 279/338/279 291/350/291
f 283/342/283 333/436/333 290/349/290
f 284/343/284 332/433/332 333/436/333
f 202/437/202 287/346/287 286/345/286
f 282/341/282 287/346/287 284/343/284
f 202/437/202 204/434/204 287/346/287
f 282/341/282 281/340/281 287/346/287
f 287/346/287 204/434/204 284/343/284
f 288/347/288 334/438/334 285/344/285
f 289/348/289 334/438/334 288/347/288
f 297/358/297 203/439/203 293/353/293
f 203/439/203 296/357/296 237/435/237
f 280/351/280 291/440/291 292/352/292
f 203/439/203 297/358/297 296/357/296
f 296/357/296 332/433/332 237/435/237
f 332/433/332 295/356/295 333/436/333
f 297/358/297 293/353/293 294/355/294
f 292/352/292 290/441/290 294/355/294
f 333/436/333 295/356/295 290/441/290
f 203/439/203 202/442/202 299/360/299
f 293/353/293 299/360/299 281/354/281
f 202/442/202 286/361/286 299/360/299
f 293/353/293 203/439/203 299/360/299
f 293/353/293 292/352/292 294/355/294
f 332/433/332 296/357/296 295/356/295
f 290/441/290 295/356/295 294/355/294
f 292/352/292 291/440/291 290/441/290
f 285/362/285 334/443/334 298/359/298
f 298/359/298 334/443/334 289/363/289
f 310/374/310 309/373/309 317/381/317
f 312/444/312 316/380/316 317/381/317
f 305/384/305 312/444/312 317/381/317
f 302/366/302 310/374/310 316/380/316
f 312/444/312 311/385/311 316/380/316
f 310/374/310 317/381/317 316/380/316
f 335/445/335 307/371/307 306/370/306
f 313/377/313 307/371/307 335/445/335
f 320/446/320 306/383/306 318/382/318
f 318/382/318 313/377/313 320/446/320
f 306/388/306 319/387/319 324/447/324
f 335/448/335 336/449/336 313/393/313
f 336/449/336 324/447/324 337/450/337
f 323/451/323 336/449/336 337/450/337
f 306/388/306 324/447/324 336/449/336
f 313/393/313 323/451/323 322/394/322
f 313/393/313 336/449/336 323/451/323
f 306/388/306 336/449/336 335/448/335
f 337/452/337 324/398/324 323/397/323
f 322/396/322 319/395/319 321/453/321
f 338/454/338 339/455/338 340/456/338 341/457/338
f 342/458/338 343/459/338 341/457/338 340/456/338
f 342/458/338 344/460/338 345/461/338 343/459/338
f 346/462/339 347/463/340 348/464/341 349/465/342
f 350/466/343 351/467/344 347/463/345 346/462/346
f 352/468/338 353/469/338 340/456/338 339/455/338
f 342/458/338 340/456/338 353/469/338 354/470/338
f 342/458/338 354/470/338 355/471/338 344/460/338
f 356/472/347 357/473/348 348/464/341 347/463/340
f 358/474/349 356/472/350 347/463/345 351/467/344
f 346/462/339 349/465/342 359/475/351 360/476/352
f 350/466/343 346/462/346 360/476/353 361/477/354
f 356/472/347 360/476/352 359/475/351 357/473/348
f 358/474/349 361/477/354 360/476/353 356/472/350
f 362/478/338 338/454/338 341/457/338
f 345/461/338 363/479/338 343/459/338
f 351/467/344 350/466/343 364/480/355
f 348/464/356 365/481/357 349/465/358
f 366/482/338 353/469/338 352/468/338
f 355/471/338 354/470/338 367/483/338
f 351/467/344 364/480/355 358/474/349
f 348/464/356 357/473/359 365/481/357
f 361/477/354 364/480/355 350/466/343
f 359/475/360 349/465/358 365/481/357
f 361/477/354 358/474/349 364/480/355
f 359/475/360 365/481/357 357/473/359
